<svg xmlns="http://www.w3.org/2000/svg" viewBox="0 0 75.69 75.69"><title>Recurso 11200px</title><g id="Capa_2" data-name="Capa 2"><g id="Capa_2-2" data-name="Capa 2"><g id="Grupo_28" data-name="Grupo 28"><path id="Trazado_76" data-name="Trazado 76" d="M53.61,6.31A15.81,15.81,0,0,1,69.38,22.08V53.61A15.81,15.81,0,0,1,53.61,69.38H22.08A15.81,15.81,0,0,1,6.31,53.61V22.08A15.81,15.81,0,0,1,22.08,6.31H53.61m0-6.31H22.08A22.15,22.15,0,0,0,0,22.08V53.61A22.15,22.15,0,0,0,22.08,75.69H53.61A22.15,22.15,0,0,0,75.69,53.61V22.08A22.15,22.15,0,0,0,53.61,0Z"/><path id="Trazado_77" data-name="Trazado 77" d="M58.34,22.08a4.73,4.73,0,1,1,4.73-4.71,4.74,4.74,0,0,1-4.73,4.71Z"/><path id="Trazado_78" data-name="Trazado 78" d="M37.85,25.23A12.62,12.62,0,1,1,25.23,37.84,12.62,12.62,0,0,1,37.85,25.23h0m0-6.31A18.93,18.93,0,1,0,56.77,37.84h0A18.92,18.92,0,0,0,37.85,18.92Z"/></g></g></g></svg>