<svg xmlns="http://www.w3.org/2000/svg" viewBox="0 0 433.1 400.15"><defs><style>.cls-1{fill:#fff;}</style></defs><title>Recurso 6200px</title><g id="Capa_2" data-name="Capa 2"><g id="Capa_2-2" data-name="Capa 2"><path class="cls-1" d="M377,.15C259,9.82,221.34,61.86,216.55,69.26,211.76,61.86,174.11,9.82,56.1.15c-61-5-56,119-56,119,41,54,62-6,61,80l26-24-22,119,46.81-4.48,4.86-9.34c10.78-20.68,20.29-38.8,20.29-38.8l-.22,37-.05,8.78,79.81-7.64,79.71,7.64-.05-8.78-.22-37s9.51,18.12,20.29,38.8l4.86,9.34L368,294.15l-22-119,26,24c-1-86,20-26,61-80C433,119.15,438-4.85,377,.15ZM68.69,112.69C56.56,88,63.09,52.48,63.09,52.48l124.62,47.61S80.83,137.43,68.69,112.69Zm57.88,62.08L204,221.44C105.1,236.84,126.57,174.77,126.57,174.77ZM290.82,217.5l-1.45.71c-1.05.49-2.16.95-3.33,1.39-.3.12-.61.23-.93.34-.63.22-1.27.43-1.93.64-1.41.44-2.9.84-4.46,1.2-.41.1-.82.19-1.24.27l-1.27.26c-.44.09-.88.17-1.33.24q-2.19.38-4.56.66c-1.59.19-3.25.34-5,.45a135.86,135.86,0,0,1-15.79,0l-2.35-.15-2.3-.17-.71-.06-1.3-.12-.56,0c-1.55-.15-3.14-.32-4.76-.52l-1.54-.19-1.68-.22-.55-.07-1.89-.27c-.91-.13-1.84-.26-2.77-.41l77.4-46.62C307,176.18,316.07,204.47,290.82,217.5Zm73.59-104.81c-12.14,24.74-119-12.6-119-12.6L370,52.48S376.54,88,364.41,112.69Z"/><path class="cls-1" d="M132.05,322.46H98.49c4.66-8.95,11.39-21.65,17.58-33.28,8.34-15.68,15.69-29.41,15.69-29.41V287.7l0,34.28Z"/><path class="cls-1" d="M216.55,400.15c-157.42-.48-152.45-73-152.45-73H369S374,399.67,216.55,400.15Z"/><path class="cls-1" d="M300.49,322.46h33.56c-4.66-8.95-11.39-21.65-17.58-33.28-8.34-15.68-15.69-29.41-15.69-29.41V287.7l0,34.28Z"/></g></g></svg>