<svg xmlns="http://www.w3.org/2000/svg" viewBox="0 0 65.5 65.65"><defs><style>.cls-1{fill-rule:evenodd;}</style></defs><title>Recurso 9200px</title><g id="Capa_2" data-name="Capa 2"><g id="Capa_2-2" data-name="Capa 2"><path id="Trazado_74" data-name="Trazado 74" class="cls-1" d="M56,9.67A32.55,32.55,0,0,0,4.63,48.84L0,65.65l17.29-4.51a32.72,32.72,0,0,0,15.58,4h0A32.59,32.59,0,0,0,65.5,32.63,32.18,32.18,0,0,0,56,9.67ZM32.89,59.6h0a27,27,0,0,1-13.8-3.76l-1-.58L7.83,57.94l2.74-10-.64-1a27.13,27.13,0,1,1,23,12.64ZM47.76,39.4c-.82-.4-4.83-2.37-5.57-2.64s-1.29-.4-1.83.41-2.1,2.63-2.58,3.18-1,.61-1.77.2a22.2,22.2,0,0,1-6.55-4,24.52,24.52,0,0,1-4.53-5.62c-.48-.81-.05-1.25.35-1.66s.82-.95,1.23-1.42a5.76,5.76,0,0,0,.81-1.35,1.49,1.49,0,0,0-.07-1.42c-.2-.4-1.83-4.4-2.51-6s-1.33-1.37-1.83-1.4-1,0-1.57,0a3,3,0,0,0-2.17,1,9.06,9.06,0,0,0-2.85,6.77c0,4,2.92,7.84,3.33,8.39S25.39,42.52,33.57,46a47.73,47.73,0,0,0,4.64,1.71,11.28,11.28,0,0,0,5.13.32c1.57-.23,4.83-2,5.5-3.86a6.7,6.7,0,0,0,.48-3.85c-.2-.34-.74-.55-1.56-1Z"/></g></g></svg>