<svg xmlns="http://www.w3.org/2000/svg" viewBox="0 0 83.12 62.35"><title>Recurso 8200px</title><g id="Capa_2" data-name="Capa 2"><g id="Capa_2-2" data-name="Capa 2"><path id="Trazado_73" data-name="Trazado 73" d="M82.59,13.77c0-7.31-5.38-13.19-12-13.19C61.57.16,52.4,0,43,0H40.11C30.75,0,21.56.16,12.57.58,5.94.58.57,6.5.57,13.8.16,19.58,0,25.36,0,31.14S.17,42.71.55,48.5c0,7.3,5.38,13.23,12,13.23,9.45.44,19.15.63,29,.62s19.54-.18,29-.62c6.64,0,12-5.93,12-13.23.39-5.8.57-11.58.55-17.38S83,19.56,82.59,13.77Zm-49,33.3V15.16l23.55,16Z"/></g></g></svg>